<?xml version="1.0" standalone="no"?>
<!DOCTYPE svg PUBLIC "-//W3C//DTD SVG 20010904//EN"
 "http://www.w3.org/TR/2001/REC-SVG-20010904/DTD/svg10.dtd">
<svg version="1.0" xmlns="http://www.w3.org/2000/svg"
 width="220.000000pt" height="220.000000pt" viewBox="0 0 220.000000 220.000000"
 preserveAspectRatio="xMidYMid meet">

<g transform="translate(0.000000,220.000000) scale(0.100000,-0.100000)"
fill="#000000" stroke="none">
<path d="M40 1100 l0 -1041 808 3 807 3 81 33 c104 41 164 81 239 157 120 122
184 274 193 459 3 66 0 137 -8 180 -39 225 -177 414 -373 508 -122 59 -147 63
-417 63 -227 0 -248 -1 -290 -21 -65 -30 -117 -86 -135 -147 -29 -97 -14 -171
48 -235 71 -74 132 -92 318 -92 164 0 194 -8 246 -62 98 -102 78 -273 -39
-334 -21 -11 -88 -14 -320 -14 -161 0 -299 -4 -307 -9 -35 -22 38 -124 119
-167 30 -16 64 -19 245 -22 194 -3 216 -2 275 18 113 38 201 115 248 219 22
48 26 70 26 156 0 92 -2 105 -32 166 -61 126 -165 212 -290 238 -29 6 -113 11
-187 11 -144 0 -165 7 -165 54 0 47 18 51 234 50 281 0 353 -22 470 -139 117
-117 172 -319 135 -497 -27 -132 -127 -271 -235 -330 -107 -58 -108 -58 -831
-58 l-663 0 0 370 0 370 209 0 209 0 31 -55 c64 -114 202 -218 340 -259 41
-12 99 -16 231 -16 161 0 180 2 202 20 40 31 53 72 34 108 -30 58 -45 62 -222
62 -88 0 -176 5 -195 11 -106 34 -190 102 -236 193 -35 67 -43 195 -19 278 21
72 90 166 153 206 85 55 126 62 351 62 l202 0 0 95 0 95 -223 0 c-200 0 -231
-2 -288 -21 -131 -43 -229 -116 -302 -227 -55 -83 -81 -154 -97 -257 -7 -44
-14 -86 -16 -92 -3 -10 -48 -13 -184 -13 l-180 0 0 385 0 385 645 0 645 0 0
95 0 95 -745 0 -745 0 0 -1040z"/>
</g>
</svg>
