<svg xmlns="http://www.w3.org/2000/svg" viewBox="0 0 602.28 181.5">
  <path fill="#555" d="M373.64,142.75c-34.79,25.72-85.34,39.36-128.95,39.36c-61,0-115.91-22.57-157.5-60.08c-3.27-2.95-0.34-7,3.59-4.69c44.98,26.18,100.67,41.94,158.17,41.94c38.76,0,81.43-8.03,120.72-24.71C375.36,131.65,379.24,138.6,373.64,142.75z"/>
  <path fill="#555" d="M388.56,125.66c-4.45-5.7-29.46-2.69-40.69-1.36c-3.41,0.41-3.94-2.57-0.86-4.71c19.92-14.01,52.62-9.97,56.4-5.27c3.78,4.73-0.98,37.64-19.76,53.37c-2.88,2.41-5.63,1.12-4.34-2.07C384.97,155.31,393.03,131.36,388.56,125.66z"/>
  <path fill="#555" d="M348.85,20.62v-14.1c0-2.15,1.62-3.58,3.58-3.58h63.26c2.03,0,3.66,1.45,3.66,3.58v12.08c-0.03,2.03-1.73,4.69-4.78,8.91l-32.78,46.82c12.17-0.3,25.03,1.53,36.07,7.73c2.48,1.39,3.15,3.43,3.35,5.43v15.07c0,2.03-2.24,4.42-4.6,3.18c-19.22-10.09-44.68-11.19-65.92,0.11c-2.17,1.16-4.43-1.17-4.43-3.2v-14.31c0-2.24,0.03-6.08,2.29-9.5l37.99-54.57h-33.08C350.47,24.27,348.85,22.76,348.85,20.62z"/>
  <path fill="#555" d="M124.36,105.67h-19.23c-1.84-0.13-3.31-1.51-3.44-3.26V9.9c0-1.96,1.65-3.52,3.69-3.52h17.91c1.86,0.09,3.35,1.51,3.48,3.3v12.07h0.35c4.66-12.44,13.43-18.28,25.28-18.28c12.02,0,19.54,5.84,24.94,18.28c4.66-12.44,15.26-18.28,26.6-18.28c8.07,0,16.89,3.32,22.27,10.8c6.08,8.28,4.84,20.3,4.84,30.88l-0.02,60.01c0,1.96-1.65,3.52-3.69,3.52h-19.21c-1.93-0.13-3.46-1.67-3.46-3.52V54.15c0-4.3,0.39-15.01-0.56-19.09c-1.5-6.85-5.98-8.77-11.79-8.77c-4.86,0-9.95,3.24-12.02,8.45c-2.06,5.21-1.87,13.9-1.87,19.41v48.01c0,1.96-1.65,3.52-3.69,3.52h-19.21c-1.93-0.13-3.46-1.67-3.46-3.52V54.15c0-11.37,1.87-28.13-12.35-28.13c-14.4,0-13.84,16.33-13.84,28.13v48.01C128.05,104.11,126.4,105.67,124.36,105.67z"/>
  <path fill="#555" d="M516.92,20.1c28.38,0,43.79,24.37,43.79,55.37c0,29.96-16.98,53.72-43.79,53.72c-27.93,0-43.14-24.37-43.14-54.77C473.78,44.12,489.16,20.1,516.92,20.1z M517.1,39.53c-14.16,0-15.03,19.29-15.03,31.31c0,12.03-0.18,37.74,14.85,37.74c14.85,0,15.59-20.73,15.59-33.38c0-8.31-0.35-18.27-2.87-26.17C527.2,42.72,523.12,39.53,517.1,39.53z"/>
  <path fill="#555" d="M312.58,105.67h-19.15c-1.93-0.13-3.46-1.67-3.46-3.52V9.83c0.16-1.77,1.69-3.16,3.61-3.16h17.83c1.64,0.09,2.99,1.19,3.35,2.67v14.38h0.35c5.38-13.51,12.96-19.95,26.28-19.95c8.65,0,17.09,3.12,22.5,11.66c5.01,7.93,5.01,21.26,5.01,30.88v62.32c-0.21,1.69-1.75,3.03-3.61,3.03h-19.32c-1.73-0.13-3.16-1.41-3.35-3.03V54.27c0-10.95,1.27-27-12.24-27c-4.78,0-9.17,3.19-11.36,8.06c-2.75,6.13-3.12,12.26-3.12,18.95v48.88C316.29,104.11,314.64,105.67,312.58,105.67z"/>
  <path fill="#555" d="M179.67,60.29c0,7.35,0.18,13.46-3.5,19.99c-2.98,5.41-7.73,8.72-12.98,8.72c-7.2,0-11.43-5.5-11.43-13.63c0-16.03,14.37-18.95,27.91-18.95V60.29z M199.12,105.43c-1.27,1.14-3.12,1.22-4.55,0.45c-6.39-5.32-7.54-7.78-11.04-12.85c-10.56,10.77-18.03,14-31.75,14c-16.22,0-28.82-10.01-28.82-30.03c0-15.65,8.47-26.29,20.55-31.48c10.47-4.59,25.1-5.41,36.28-6.68v-2.5c0-4.59,0.36-10.02-2.34-13.99c-2.34-3.52-6.85-4.97-10.82-4.97c-7.36,0-13.94,3.77-15.53,11.57c-0.33,1.74-1.62,3.46-3.37,3.55l-18.66-2.01c-1.57-0.36-3.32-1.65-2.87-4.09C130.11,9.48,155.16,0,177.58,0c11.43,0,26.37,3.05,35.38,11.71c11.43,10.68,10.34,24.9,10.34,40.39v36.6c0,10.99,4.57,15.82,8.86,21.75c1.51,2.09,1.84,4.6-0.08,6.17C226.54,120.46,219.57,127,215.61,131l-0.09-0.09C211.12,126.13,203.57,118.83,199.12,105.43z"/>
  <path fill="#555" d="M602.27,131.12V19.77c0-13.5-10.13-21.24-24.14-21.24h-33.05v83.47L602.27,131.12z M544.63,1.98l0.54-0.54V0h-63.11c-14.01,0-24.14,7.74-24.14,21.24v129.25l27.34-19.24V1.44c0-0.34,0.2-0.98,0.54-0.54h66.14C550.56,3.05,545.79,1.44,544.63,1.98z"/>
  <path fill="#555" d="M300.64,181.5c-72.52,0-137.78-26.82-187.14-71.32c-3.87-3.5-0.4-8.3,4.24-5.58c53.23,31.08,119.04,49.77,187.14,49.77c45.89,0,96.4-9.54,142.91-29.28c7-2.93,12.87,4.62,6.03,8.5C412.28,165.45,359.61,181.5,300.64,181.5z"/>
</svg>