<svg xmlns="http://www.w3.org/2000/svg" viewBox="0 0 240 60">
  <path d="M18.5,32.9h-6.9v10.8h-4.2V16.3h12.1c5.4,0,8.5,3.5,8.5,8.3c0,4.8-3.1,8.3-8.5,8.3H18.5z M18.1,20h-6.5v9.3h6.5c3.1,0,4.8-1.7,4.8-4.6S21.2,20,18.1,20z" fill="#555"/>
  <path d="M39.7,44.1c-6.1,0-10.4-4-10.4-10.8c0-6.8,4.2-10.8,10.4-10.8c6.1,0,10.4,4,10.4,10.8C50.1,40.1,45.9,44.1,39.7,44.1z M39.7,26.3c-3.5,0-5.7,2.7-5.7,7.1c0,4.3,2.2,7.1,5.7,7.1c3.5,0,5.7-2.7,5.7-7.1C45.4,29,43.2,26.3,39.7,26.3z" fill="#555"/>
  <path d="M70.1,35.5c0,5.4-3.2,8.6-8.5,8.6h-9.7V16.3h9.2c5.2,0,8.2,3.1,8.2,8.2c0,3.2-1.4,5.5-3.7,6.6C68.3,32,70.1,33.3,70.1,35.5z M56.1,20.1v8.4h4.3c2.8,0,4.3-1.4,4.3-4.2c0-2.8-1.5-4.2-4.3-4.2H56.1z M65.7,35.2c0-2.9-1.6-4.4-4.7-4.4h-4.9v8.8h4.9C64.1,39.6,65.7,38.1,65.7,35.2z" fill="#555"/>
  <path d="M87.5,22.8h3.4v20.9h-3.4v-3.2c-1.4,2.3-3.5,3.5-6.4,3.5c-5,0-8.3-3.9-8.3-10.8c0-6.6,3.3-10.6,8.3-10.6c2.9,0,5,1.3,6.4,3.5V22.8z M78.2,33.3c0,4.7,2,7.1,5.4,7.1c3.3,0,5.4-2.4,5.4-7.1c0-4.6-2.1-7-5.4-7C80.2,26.3,78.2,28.7,78.2,33.3z" fill="#555"/>
  <path d="M109.4,39.9h-9.8v3.9h-3.4V16.3h3.4v10.8h9.8V16.3h3.4v27.5h-3.4V39.9z" fill="#555"/>
  <path d="M120.3,44.1c-3.8,0-6.7-1.6-7.5-5.2h3.4c0.7,1.9,2.1,2.8,4.1,2.8c2.7,0,4.3-1.7,4.3-4.5v-2.8c-1.4,2.3-3.5,3.5-6.4,3.5c-5,0-8.3-3.9-8.3-10c0-6.3,3.3-10,8.3-10c2.9,0,5,1.3,6.4,3.5v-3.2h3.4v19.1C127.9,41.6,125,44.1,120.3,44.1z M116.9,40.4c3.3,0,5.3-2.3,5.3-6.3v-1.8c0-4-2-6.2-5.3-6.2c-3.3,0-5.3,2.3-5.3,6.9C111.6,37.7,113.6,40.4,116.9,40.4z" fill="#555"/>
  <path d="M148.6,22.8h3.4v20.9h-3.4v-3.2c-1.4,2.3-3.5,3.5-6.4,3.5c-5,0-8.3-3.9-8.3-10.8c0-6.6,3.3-10.6,8.3-10.6c2.9,0,5,1.3,6.4,3.5V22.8z M139.3,33.3c0,4.7,2,7.1,5.4,7.1c3.3,0,5.4-2.4,5.4-7.1c0-4.6-2.1-7-5.4-7C141.3,26.3,139.3,28.7,139.3,33.3z" fill="#555"/>
  <path d="M171.4,22.8h3.4v20.9h-3.4v-3.2c-1.4,2.3-3.5,3.5-6.4,3.5c-5,0-8.3-3.9-8.3-10.8c0-6.6,3.3-10.6,8.3-10.6c2.9,0,5,1.3,6.4,3.5V22.8z M162.1,33.3c0,4.7,2,7.1,5.4,7.1c3.3,0,5.4-2.4,5.4-7.1c0-4.6-2.1-7-5.4-7C164.1,26.3,162.1,28.7,162.1,33.3z" fill="#555"/>
  <path d="M178.7,33.2c0-6.8,4-10.6,9.7-10.6c5.9,0,9.6,3.6,9.6,10.3v1.5h-15.9c0.2,3.7,2.3,6,5.7,6c2.6,0,4.2-1.1,4.8-3h5.2c-1,4.2-4.6,6.8-10.1,6.8C182.6,44.1,178.7,40.2,178.7,33.2z M194.7,31c-0.3-3.2-2.3-5-6.2-5c-3,0-5.1,1.8-5.7,5H194.7z" fill="#555"/>
  <path d="M204.2,33.2c0-6.8,4-10.6,9.7-10.6c5.9,0,9.6,3.6,9.6,10.3v1.5h-15.9c0.2,3.7,2.3,6,5.7,6c2.6,0,4.2-1.1,4.8-3h5.2c-1,4.2-4.6,6.8-10.1,6.8C208.1,44.1,204.2,40.2,204.2,33.2z M220.2,31c-0.3-3.2-2.3-5-6.2-5c-3,0-5.1,1.8-5.7,5H220.2z" fill="#555"/>
</svg>