<svg xmlns="http://www.w3.org/2000/svg" viewBox="0 0 888 212">
  <path fill="#555" d="M213,105.9h140.4v-28h-80.5v-19.7h80.5v-28.5h-80.5v-18.4h80.5v-11.2h-140.4zM450.3,0h-81.4l-67.8,105.9h70.2l28.5-44.6v44.6h50.5zM409,49.9l15.8-24.7v24.7zM587.3,0h-89.6v105.9h140.4v-11.2h-81v-28.5h81.2v-28.4h-81.2v-37.8h-0.3l89.6,0.1h0.3v-0.1zM648.4,0v105.9h50.6v-61.3h0.3l42.3,61.3h55l-47.3-66.1,44.5-39.8h-53.3l-41.5,38.5v-38.5zM766.7,105.9h50.5v-105.9h-50.5zM839.4,105.9h48.6v-105.9h-48.6z"/>
  <rect fill="#555" y="0" width="106" height="105.9"/>
  <rect fill="#555" x="106" y="0" width="106" height="105.9"/>
</svg>