<svg xmlns="http://www.w3.org/2000/svg" viewBox="0 0 312.5 222.7">
  <path fill="#555" d="M236.1,123c3.8-4.2,10.3-11.2,10.3-19.5,0-13.9-11.7-22.8-31.1-22.8h-45.9v83.8h47.1c14.8,0,27.1-8.4,27.1-23.3C243.7,132.5,238.4,125.5,236.1,123 M195.8,96.1h17.7c7.3,0,11.4,5.1,11.4,10.8c0,4.9-3.8,10.8-11.4,10.8h-17.7V96.1z M214.9,149h-19.1v-17.2h19.1c7.8,0,11.3,4.9,11.3,8.6C226.2,143.9,222.9,149,214.9,149"/>
  <path fill="#555" d="M156.4,83c-43.8,0-79.3,23.2-79.3,51.8c0,28.6,35.5,51.8,79.3,51.8c43.8,0,79.3-23.2,79.3-51.8C235.7,106.2,200.2,83,156.4,83 M156.4,174.9c-29.3,0-53-18-53-40.1c0-22.1,23.7-40.1,53-40.1c29.3,0,53,18,53,40.1C209.4,156.9,185.6,174.9,156.4,174.9"/>
  <path fill="#555" d="M41.9,48.5c12.2,0,21.7,5.5,21.7,13.8c0,8.1-10,13.8-21.7,13.8c-12,0-21.7-5.3-21.7-13.8C20.2,54.3,30.4,48.5,41.9,48.5 M41.9,71.7c6.9,0,12.5-4,12.5-9.4c0-5.3-5.6-9.4-12.5-9.4s-12.5,4-12.5,9.4C29.4,67.6,35,71.7,41.9,71.7"/>
  <path fill="#555" d="M157.8,48.5c12.2,0,21.7,5.5,21.7,13.8c0,8.1-10,13.8-21.7,13.8c-12,0-21.7-5.3-21.7-13.8C136.1,54.3,146.3,48.5,157.8,48.5 M157.8,71.7c6.9,0,12.5-4,12.5-9.4c0-5.3-5.6-9.4-12.5-9.4c-6.9,0-12.5,4-12.5,9.4C145.2,67.6,150.9,71.7,157.8,71.7"/>
  <path fill="#555" d="M272.9,48.5c12.2,0,21.7,5.5,21.7,13.8c0,8.1-10,13.8-21.7,13.8c-12,0-21.7-5.3-21.7-13.8C251.3,54.3,261.4,48.5,272.9,48.5 M272.9,71.7c6.9,0,12.5-4,12.5-9.4c0-5.3-5.6-9.4-12.5-9.4c-6.9,0-12.5,4-12.5,9.4C260.4,67.6,266,71.7,272.9,71.7"/>
  <path fill="#555" d="M97,48.5h-9.2l-14.4,28.7h10.1l2.3-5h14.2l2.1,5h9.8L97,48.5z M89.2,64.7l4.2-10.1l3.9,10.1H89.2z"/>
  <path fill="#555" d="M119.1,48.5h-9.1v28.7h9.1V61.9h15.1v15.3h9v-28.7h-9V56H119v-7.5H119.1z"/>
  <path fill="#555" d="M214.7,48.5l-10.5,11.5l-10.2-11.5h-10.9l16.5,18.1v10.7h9.1V66.6l16.5-18.1H214.7z"/>
  <path fill="#555" d="M225.7,48.5h9.1l2.9,20.1l10.2-20.1h9.2L267,68.5l2.6-20h9.1l-4.3,28.7h-10.3l-9.5-18.4l-9.8,18.4h-10.2L225.7,48.5z"/>
</svg>