<svg xmlns="http://www.w3.org/2000/svg" viewBox="0 0 200 60">
  <path d="M26.9,16.9h-8.3v7.6h8.3V16.9z M26.9,26.3h-8.3v17.4h-5.7V10.7h13.9V26.3z" fill="#555"/>
  <path d="M44.5,43.7l-0.5-2c-1.7,1.7-3.6,2.5-5.9,2.5c-3.9,0-6.7-2.2-6.7-6.1c0-4.2,3.2-6.5,8.1-6.5h4.3v-1.5c0-2.2-1.4-3.4-4-3.4c-2.3,0-3.7,1.1-4.1,3h-5c0.4-4.6,3.8-7.1,9.3-7.1c5.8,0,9.1,2.5,9.1,7.3v13.7H44.5z M43.9,35h-3.7c-2.7,0-4.1,1-4.1,2.9c0,1.7,1.3,2.7,3.4,2.7c2.6,0,4.4-1.6,4.5-3.9V35z" fill="#555"/>
  <path d="M59.6,43.7h-5.5V22.8h5.4v3.3c1.1-2.4,2.9-3.7,5.3-3.7c0.7,0,1.3,0.1,1.7,0.2v5c-0.6-0.3-1.3-0.4-2.2-0.4c-2.8,0-4.6,1.8-4.6,4.7V43.7z" fill="#555"/>
  <path d="M68.4,33.2c0-6.8,4.2-11,10.7-11c6.4,0,10.3,4.1,10.3,10.9v1.6H74c0.3,3.1,2.1,4.8,5.2,4.8c2.2,0,3.7-0.9,4.3-2.5h5.4c-1.1,4.2-4.7,6.7-9.9,6.7C72.6,43.7,68.4,39.9,68.4,33.2z M83.7,30.8c-0.1-2.7-1.9-4.3-4.7-4.3c-2.5,0-4.3,1.6-4.8,4.3H83.7z" fill="#555"/>
  <path d="M107,22.8h5.5v20.9H107v-3.4c-1.6,2.5-3.9,3.8-6.9,3.8c-5.2,0-8.6-4-8.6-10.8c0-6.6,3.4-10.6,8.5-10.6c3.1,0,5.3,1.3,7,3.8V22.8z M97,33.3c0,3.9,1.6,6.1,4.3,6.1c2.7,0,4.4-2.2,4.4-6.1c0-3.8-1.7-6-4.4-6C98.6,27.3,97,29.4,97,33.3z" fill="#555"/>
  <path d="M116.3,43.7V16.9h5.5v26.8H116.3z" fill="#555"/>
  <path d="M130.9,43.7h-5.5V16.9h5.5V43.7z" fill="#555"/>
  <path d="M154.3,22.8h5.5v20.9h-5.5v-3.4c-1.6,2.5-3.9,3.8-6.9,3.8c-5.2,0-8.6-4-8.6-10.8c0-6.6,3.4-10.6,8.5-10.6c3.1,0,5.3,1.3,7,3.8V22.8z M144.3,33.3c0,3.9,1.6,6.1,4.3,6.1c2.7,0,4.4-2.2,4.4-6.1c0-3.8-1.7-6-4.4-6C145.9,27.3,144.3,29.4,144.3,33.3z" fill="#555"/>
  <path d="M177.3,33.2c0,6.6-3.6,10.5-9.5,10.5c-4,0-6.8-1.9-7.9-5.3h5.4c0.7,1.1,1.7,1.7,3,1.7c2.7,0,4.2-2.3,4.2-6.3v-0.8c-1.6,2.4-3.8,3.6-6.7,3.6c-5.2,0-8.5-3.8-8.5-9.9c0-6.1,3.3-9.8,8.5-9.8c3,0,5.3,1.3,6.9,3.9v-3.5h5.3V31C177.9,31.6,177.3,32.5,177.3,33.2z M167.1,22.4c-2.7,0-4.3,2-4.3,5.6c0,3.5,1.6,5.6,4.3,5.6c2.7,0,4.4-2.1,4.4-5.6S169.8,22.4,167.1,22.4z" fill="#555"/>
</svg>