<svg xmlns="http://www.w3.org/2000/svg" viewBox="0 0 1000 500">
  <path fill="#555" d="M500,151.63c-5.17,0-9.1,3.47-12,8.84-2.19-4.34-6.35-8.84-12-8.84-12.19,0-24,17.24-24,35.57s11.81,35.57,24,35.57c5.64,0,9.81-4.5,12-8.84,2.9,5.37,6.83,8.84,12,8.84,12.19,0,24-17.24,24-35.57s-11.81-35.57-24-35.57Zm-36,35.57c0-13.06,8.13-24.57,12-24.57s12,11.51,12,24.57-8.13,24.57-12,24.57-12-11.51-12-24.57Zm36,24.57c-3.87,0-12-11.51-12-24.57s8.13-24.57,12-24.57,12,11.51,12,24.57-8.13,24.57-12,24.57Z"/>
  <path fill="#555" d="M412,151.63c-12.19,0-24,17.24-24,35.57s11.81,35.57,24,35.57,24-17.24,24-35.57-11.81-35.57-24-35.57Zm0,60.14c-3.87,0-12-11.51-12-24.57s8.13-24.57,12-24.57,12,11.51,12,24.57-8.13,24.57-12,24.57Z"/>
  <path fill="#555" d="M600,151.63c-12.19,0-24,17.24-24,35.57s11.81,35.57,24,35.57,24-17.24,24-35.57-11.81-35.57-24-35.57Zm0,60.14c-3.87,0-12-11.51-12-24.57s8.13-24.57,12-24.57,12,11.51,12,24.57-8.13,24.57-12,24.57Z"/>
  <path fill="#555" d="M636,156.63l10.29,61h-12.29l-10-61h12Zm-248,0,10.29,61h-12.29l-10-61h12Z"/>
  <path fill="#555" d="M676,156.63h12v61h-12Z"/>
  <path fill="#555" d="M364,221.63c-9.91,0-15.79-9.71-17.57-17a19.73,19.73,0,0,1,0-7.82l-12.12,1.8a29,29,0,0,0-.31,13c2.9,12.63,12.49,21,30,21s30-17.24,30-35.57-11.81-35.37-30-35.37a27.19,27.19,0,0,0-18,6.31V156.63h-12v61h12v-4.32A31.74,31.74,0,0,0,364,221.63Zm0-48c7.75,0,18,8.45,18,24.57s-10.25,24.57-18,24.57-18-8.45-18-24.57,10.25-24.57,18-24.57Z"/>
  <path fill="#555" d="M728,151.63c-18.19,0-30,17.24-30,35.57s11.81,35.57,30,35.57,30-8.37,30-21a28.83,28.83,0,0,0,.31-13l-12.12-1.8a19.73,19.73,0,0,1,0,7.82c-1.78,7.29-7.66,17-17.57,17a31.74,31.74,0,0,0,17.38-8.32V217.63h12v-61h-12v11.47A27.19,27.19,0,0,0,728,151.63Zm0,49.14c-7.75,0-18-8.45-18-24.57s10.25-24.57,18-24.57,18,8.45,18,24.57-10.25,24.57-18,24.57Z"/>
</svg>