<?xml version="1.0" encoding="UTF-8" standalone="no"?>
<svg width="1440" height="600" viewBox="0 0 1440 600" fill="none" xmlns="http://www.w3.org/2000/svg">
  <rect width="1440" height="600" fill="#F8F3E9"/>
  <path opacity="0.1" fill-rule="evenodd" clip-rule="evenodd" d="M-244.5 271.5C-244.5 271.5 -157.5 132 -39.5 132C78.5 132 125 193.5 244.5 193.5C364 193.5 370.5 97.5 523 97.5C675.5 97.5 746.5 199 876.5 199C1006.5 199 1021 106.5 1166 106.5C1311 106.5 1315.5 264.5 1497.5 264.5C1679.5 264.5 1742.5 98 1881 98C2019.5 98 2106.5 283 2106.5 283L2113 594.5L-238 594.5L-244.5 271.5Z" fill="#F5D742"/>
  <path opacity="0.1" fill-rule="evenodd" clip-rule="evenodd" d="M-244.5 342.5C-244.5 342.5 -157.5 203 -39.5 203C78.5 203 125 264.5 244.5 264.5C364 264.5 370.5 168.5 523 168.5C675.5 168.5 746.5 270 876.5 270C1006.5 270 1021 177.5 1166 177.5C1311 177.5 1315.5 335.5 1497.5 335.5C1679.5 335.5 1742.5 169 1881 169C2019.5 169 2106.5 354 2106.5 354L2113 665.5L-238 665.5L-244.5 342.5Z" fill="#F5D742"/>
  <g opacity="0.05">
    <path d="M-242 0.5L2106.5 0.5V209.5C2106.5 209.5 2019.5 24.5 1881 24.5C1742.5 24.5 1679.5 191 1497.5 191C1315.5 191 1311 33 1166 33C1021 33 1006.5 125.5 876.5 125.5C746.5 125.5 675.5 24 523 24C370.5 24 364 120 244.5 120C125 120 78.5 58.5 -39.5 58.5C-157.5 58.5 -244.5 198 -244.5 198L-242 0.5Z" fill="#F5D742"/>
  </g>
</svg>